<svg xmlns="http://www.w3.org/2000/svg" xmlns:xlink="http://www.w3.org/1999/xlink" width="163" height="142" viewBox="0 0 163 142">
  <defs>
    <linearGradient id="linear-gradient" x1="0.5" x2="0.5" y2="1" gradientUnits="objectBoundingBox">
      <stop offset="0" stop-color="#36cc29"/>
      <stop offset="1" stop-color="#13e600"/>
    </linearGradient>
    <linearGradient id="linear-gradient-2" x1="0.5" x2="0.5" y2="1" gradientUnits="objectBoundingBox">
      <stop offset="0" stop-color="#1a1a1a"/>
      <stop offset="1" stop-color="#2e3331"/>
    </linearGradient>
  </defs>
  <g id="logo" transform="translate(-369 -4101)">
    <path id="Polygone_9" data-name="Polygone 9" d="M114.722,0A13,13,0,0,1,126,6.529l33.289,58a13,13,0,0,1,0,12.942l-33.289,58A13,13,0,0,1,114.722,142H48.278A13,13,0,0,1,37,135.471l-33.289-58a13,13,0,0,1,0-12.942L37,6.529A13,13,0,0,1,48.278,0Z" transform="translate(369 4101)" fill="#fff"/>
    <g id="Groupe_803" data-name="Groupe 803" transform="translate(-456.827 4292.65)">
      <path id="Tracé_200" data-name="Tracé 200" d="M888.1-94.035v-53.247h22.568a15.111,15.111,0,0,1,6.787,1.537,17.578,17.578,0,0,1,5.368,4.05,19.222,19.222,0,0,1,3.519,5.7,17.154,17.154,0,0,1,1.281,6.412,18.353,18.353,0,0,1-1.213,6.562,17.97,17.97,0,0,1-3.368,5.662,16.505,16.505,0,0,1-5.25,3.975,15.164,15.164,0,0,1-6.749,1.5H898.453v17.849Zm10.35-26.923h12a5.923,5.923,0,0,0,4.756-2.325,9.62,9.62,0,0,0,1.918-6.3,10.226,10.226,0,0,0-.612-3.637,8.362,8.362,0,0,0-1.575-2.737,6.154,6.154,0,0,0-2.281-1.687,6.679,6.679,0,0,0-2.662-.562H898.453Z" transform="translate(0 0)" fill="url(#linear-gradient)"/>
      <path id="Tracé_201" data-name="Tracé 201" d="M901.753-141.635c-.3.169-.569.387-.888.544a15.165,15.165,0,0,1-6.749,1.5h-2.788l9.693,15.912h11.625Z" transform="translate(16.931 29.645)" fill="url(#linear-gradient-2)"/>
    </g>
  </g>
</svg>
