<svg id="Layer_1" data-name="Layer 1" xmlns="http://www.w3.org/2000/svg" viewBox="0 0 40.9 39.96"><defs><style>.cls-1{fill:#fff;}</style></defs><path class="cls-1" d="M20.5,26A9,9,0,1,0,7.84,24.48,9.44,9.44,0,0,0,9.35,26,15,15,0,0,0,0,38.29a1.51,1.51,0,0,0,3,.33,12,12,0,0,1,23.89,0A1.51,1.51,0,0,0,28.41,40h.16a1.49,1.49,0,0,0,1.32-1.65A15,15,0,0,0,20.5,26Zm-5.57-1.07a6,6,0,1,1,6-6A6,6,0,0,1,14.93,24.93Z"/><path class="cls-1" d="M25.9,7h10a1,1,0,0,0,0-2h-10a1,1,0,0,0,0,2Z"/><path class="cls-1" d="M25.9,11h10a1,1,0,0,0,0-2h-10a1,1,0,0,0,0,2Z"/><path class="cls-1" d="M37.9,0h-14a3,3,0,0,0-3,3V8.64a8.62,8.62,0,0,1,2,1.36V3a1,1,0,0,1,1-1h14a1,1,0,0,1,1,1V13a1,1,0,0,1-1,1h-12a1.1,1.1,0,0,0-.4.08,9,9,0,0,1,.38,2.35l.43-.43H37.9a3,3,0,0,0,3-3V3A3,3,0,0,0,37.9,0Z"/></svg>