<svg id="Layer_1" data-name="Layer 1" xmlns="http://www.w3.org/2000/svg" viewBox="0 0 41.48 44.57"><defs><style>.cls-1{fill:#fff;}</style></defs><circle class="cls-1" cx="15.83" cy="26.28" r="1"/><circle class="cls-1" cx="19.83" cy="26.28" r="1"/><circle class="cls-1" cx="19.83" cy="18.28" r="1"/><circle class="cls-1" cx="15.83" cy="18.28" r="1"/><path class="cls-1" d="M31.22,21.28h-.58a2.82,2.82,0,0,0,.19-1v-4a3,3,0,0,0-3-3h-14a3,3,0,0,0-3,3v4a3.05,3.05,0,0,0,.18,1h-.75a8.26,8.26,0,0,1,0-16.52h7.67a3.76,3.76,0,1,0,0-2H10.26a10.26,10.26,0,0,0,0,20.52H11a3.1,3.1,0,0,0-.18,1v4a3,3,0,0,0,3,3h14a3,3,0,0,0,3-3v-4a2.86,2.86,0,0,0-.19-1h.58a8.27,8.27,0,0,1,0,16.53H23.55a3.76,3.76,0,1,0,0,2h7.67a10.27,10.27,0,0,0,0-20.53ZM21.54,2a1.76,1.76,0,1,1-1.76,1.76A1.76,1.76,0,0,1,21.54,2ZM12.83,16.28a1,1,0,0,1,1-1h14a1,1,0,0,1,1,1v4a1,1,0,0,1-1,1h-14a1,1,0,0,1-1-1Zm16,8v4a1,1,0,0,1-1,1h-14a1,1,0,0,1-1-1v-4a1,1,0,0,1,1-1h14A1,1,0,0,1,28.83,24.28ZM19.94,42.57a1.76,1.76,0,1,1,1.76-1.76A1.76,1.76,0,0,1,19.94,42.57Z"/></svg>