<svg xmlns="http://www.w3.org/2000/svg" width="208.876" height="57.805" viewBox="0 0 208.876 57.805">
  <g id="logo_zenops_large" transform="translate(-466.575 -148.066)">
    <path id="Tracé_1080" data-name="Tracé 1080" d="M466.575,187.705l26.18-31.664H467.293v-7.9H503.14v6.79L477.8,186.6h25.527v7.9H466.575Z" transform="translate(0 0.251)" fill="#3ab97a"/>
    <path id="Tracé_1081" data-name="Tracé 1081" d="M490.281,180.756a15.188,15.188,0,0,1-5.954-1.123,13.428,13.428,0,0,1-7.443-7.547,14.417,14.417,0,0,1-1.019-5.38,15.243,15.243,0,0,1,.992-5.51,13.45,13.45,0,0,1,2.873-4.544,13.714,13.714,0,0,1,4.57-3.108,15.213,15.213,0,0,1,6.033-1.149,14.834,14.834,0,0,1,5.98,1.149,13.8,13.8,0,0,1,4.492,3.082,13.094,13.094,0,0,1,2.82,4.492,14.956,14.956,0,0,1,.966,5.327q0,.679-.026,1.306a5.292,5.292,0,0,1-.131,1.045H483.283a8.114,8.114,0,0,0,.783,2.873,7.1,7.1,0,0,0,1.619,2.141,7,7,0,0,0,2.246,1.358,7.374,7.374,0,0,0,2.611.47,8.068,8.068,0,0,0,3.943-1.018,5.381,5.381,0,0,0,2.533-2.694l6.006,1.676a12.211,12.211,0,0,1-4.831,5.145A14.975,14.975,0,0,1,490.281,180.756Zm7.1-16.5a7.294,7.294,0,0,0-2.272-4.936,7.325,7.325,0,0,0-7.521-1.358,6.882,6.882,0,0,0-2.167,1.384,7.174,7.174,0,0,0-1.541,2.141,7.439,7.439,0,0,0-.705,2.768Z" transform="translate(31.148 14.513)" fill="#3ab97a"/>
    <path id="Tracé_1082" data-name="Tracé 1082" d="M508.886,180.233h-7V164.878a7.992,7.992,0,0,0-1.149-4.805,3.775,3.775,0,0,0-3.186-1.515,5.992,5.992,0,0,0-2.141.418,7.885,7.885,0,0,0-2.063,1.175,9.676,9.676,0,0,0-1.75,1.8,7.2,7.2,0,0,0-1.149,2.3v15.982h-7V152.865h6.32v5.066a10.366,10.366,0,0,1,4.387-4.074,14.072,14.072,0,0,1,6.477-1.462,8.205,8.205,0,0,1,4.178.94,6.844,6.844,0,0,1,2.507,2.451,10.333,10.333,0,0,1,1.228,3.447,22.684,22.684,0,0,1,.34,3.922Z" transform="translate(56.573 14.513)" fill="#3ab97a"/>
    <path id="Tracé_1083" data-name="Tracé 1083" d="M513.02,195.073a20.993,20.993,0,0,1-9.236-1.993,22.661,22.661,0,0,1-7.121-5.288,24.525,24.525,0,0,1-6.233-16.226,23.329,23.329,0,0,1,1.728-8.879,24.627,24.627,0,0,1,4.771-7.5,22.736,22.736,0,0,1,7.212-5.193,21.479,21.479,0,0,1,9.075-1.924,20.33,20.33,0,0,1,9.171,2.054,22.931,22.931,0,0,1,7.086,5.388,24.8,24.8,0,0,1,4.57,7.573,23.829,23.829,0,0,1,1.632,8.618,23.43,23.43,0,0,1-1.7,8.844,24.1,24.1,0,0,1-4.7,7.443,22.581,22.581,0,0,1-7.181,5.158A21.416,21.416,0,0,1,513.02,195.073Zm-13.449-23.508a18.61,18.61,0,0,0,.914,5.811,15.408,15.408,0,0,0,2.646,4.966,13.085,13.085,0,0,0,4.239,3.46,13.145,13.145,0,0,0,11.495-.035,13.089,13.089,0,0,0,4.24-3.556,15.869,15.869,0,0,0,2.611-5,18.408,18.408,0,0,0,.884-5.65,18.059,18.059,0,0,0-.949-5.806,15.794,15.794,0,0,0-2.677-4.962,12.768,12.768,0,0,0-4.239-3.43,13.248,13.248,0,0,0-11.46.065,12.933,12.933,0,0,0-4.244,3.525,15.751,15.751,0,0,0-2.581,4.962A18.687,18.687,0,0,0,499.571,171.565Z" transform="translate(79.977 0)" fill="#1a202c"/>
    <path id="Tracé_1084" data-name="Tracé 1084" d="M518.438,180.756a10.825,10.825,0,0,1-5.641-1.436,10.228,10.228,0,0,1-3.765-3.891v15.93h-6.994V152.865h6.111v4.7a11.167,11.167,0,0,1,3.917-3.787,10.891,10.891,0,0,1,5.536-1.384,11.718,11.718,0,0,1,5.118,1.123,12.676,12.676,0,0,1,4.048,3.029,14.178,14.178,0,0,1,2.664,4.492,15.564,15.564,0,0,1,.966,5.458,17.27,17.27,0,0,1-.888,5.589,14.391,14.391,0,0,1-2.481,4.544,11.568,11.568,0,0,1-3.787,3.029A10.592,10.592,0,0,1,518.438,180.756Zm-2.35-5.954a6.289,6.289,0,0,0,2.9-.679,6.98,6.98,0,0,0,2.272-1.832,8.508,8.508,0,0,0,1.462-2.659,9.547,9.547,0,0,0,.522-3.134,8.849,8.849,0,0,0-.574-3.212,8.052,8.052,0,0,0-1.593-2.585,7.419,7.419,0,0,0-2.4-1.724,7.208,7.208,0,0,0-3-.627,6.7,6.7,0,0,0-2.037.335,7.193,7.193,0,0,0-1.933.971,8.466,8.466,0,0,0-1.593,1.462,6.183,6.183,0,0,0-1.075,1.828v6.424a9.377,9.377,0,0,0,2.877,3.891A6.571,6.571,0,0,0,516.088,174.8Z" transform="translate(118.889 14.513)" fill="#1a202c"/>
    <path id="Tracé_1085" data-name="Tracé 1085" d="M521.552,180.8a21.163,21.163,0,0,1-6.733-1.1,16.432,16.432,0,0,1-5.641-3.134l2.607-4.387a22.7,22.7,0,0,0,4.883,2.69,13.123,13.123,0,0,0,4.727.91A5.981,5.981,0,0,0,524.69,175a2.523,2.523,0,0,0,1.2-2.246,2.251,2.251,0,0,0-1.415-2.146,30.777,30.777,0,0,0-4.592-1.563c-1.78-.487-3.291-.958-4.544-1.41a11.7,11.7,0,0,1-3.034-1.541,5.3,5.3,0,0,1-1.667-1.985,6.337,6.337,0,0,1-.522-2.69,8.515,8.515,0,0,1,.81-3.761,8.193,8.193,0,0,1,2.272-2.847,10.518,10.518,0,0,1,3.421-1.8,13.877,13.877,0,0,1,4.257-.631,18.273,18.273,0,0,1,5.767.892,14.12,14.12,0,0,1,4.94,2.873l-2.82,4.231a16.47,16.47,0,0,0-4.048-2.3,11.088,11.088,0,0,0-3.9-.731,5.615,5.615,0,0,0-2.973.731,2.535,2.535,0,0,0-1.2,2.35,2.272,2.272,0,0,0,.287,1.2,2.531,2.531,0,0,0,.914.836,8.916,8.916,0,0,0,1.645.705c.679.226,1.519.461,2.533.705,1.876.487,3.491.975,4.831,1.462a13.152,13.152,0,0,1,3.291,1.671,5.989,5.989,0,0,1,1.88,2.168,6.7,6.7,0,0,1,.6,2.951,7.612,7.612,0,0,1-2.973,6.346Q526.675,180.8,521.552,180.8Z" transform="translate(142.826 14.469)" fill="#1a202c"/>
  </g>
</svg>
