<svg xmlns="http://www.w3.org/2000/svg" width="256.284" height="71.476" viewBox="0 0 256.284 71.476">
  <g id="Groupe_816" data-name="Groupe 816" transform="translate(-472.333 -176.918)">
    <path id="Tracé_1059" data-name="Tracé 1059" d="M520.294,215.669h-8.659V196.682q0-4.069-1.415-5.942a4.674,4.674,0,0,0-3.94-1.873,7.417,7.417,0,0,0-2.653.517,9.746,9.746,0,0,0-2.551,1.453,11.988,11.988,0,0,0-2.163,2.228,8.808,8.808,0,0,0-1.421,2.842v19.762h-8.654V181.828h7.82v6.265a12.772,12.772,0,0,1,5.419-5.037,17.405,17.405,0,0,1,8.014-1.808,10.213,10.213,0,0,1,5.166,1.162,8.38,8.38,0,0,1,3.095,3.035,12.7,12.7,0,0,1,1.518,4.263,27.945,27.945,0,0,1,.425,4.844Z" transform="translate(72.318 18.969)" fill="#5ad94c"/>
    <path id="Tracé_1060" data-name="Tracé 1060" d="M523.75,235.042a26.03,26.03,0,0,1-11.42-2.459,28.07,28.07,0,0,1-8.8-6.544,30.3,30.3,0,0,1-7.712-20.058A28.809,28.809,0,0,1,497.96,195a30.3,30.3,0,0,1,5.893-9.284,28.218,28.218,0,0,1,8.923-6.421A26.541,26.541,0,0,1,524,176.918a25.176,25.176,0,0,1,11.34,2.546,28.315,28.315,0,0,1,8.761,6.657,30.752,30.752,0,0,1,5.646,9.364,29.466,29.466,0,0,1,2.018,10.656,29.068,29.068,0,0,1-2.094,10.936,29.833,29.833,0,0,1-5.812,9.2,27.983,27.983,0,0,1-8.88,6.377A26.423,26.423,0,0,1,523.75,235.042ZM507.12,205.98a23.063,23.063,0,0,0,1.13,7.185,19.3,19.3,0,0,0,3.272,6.135,16.256,16.256,0,0,0,5.247,4.279,15.087,15.087,0,0,0,7.061,1.615,14.92,14.92,0,0,0,7.147-1.658,16.258,16.258,0,0,0,5.247-4.4,19.656,19.656,0,0,0,3.229-6.173,22.974,22.974,0,0,0,1.087-6.986,22.335,22.335,0,0,0-1.168-7.185,19.814,19.814,0,0,0-3.31-6.135,15.726,15.726,0,0,0-5.247-4.236,16.332,16.332,0,0,0-14.17.081,15.967,15.967,0,0,0-5.247,4.354,19.687,19.687,0,0,0-3.186,6.135A22.976,22.976,0,0,0,507.12,205.98Z" transform="translate(102.908 0)" fill="#edf2f7"/>
    <path id="Tracé_1061" data-name="Tracé 1061" d="M527.7,216.315a13.335,13.335,0,0,1-6.975-1.776,12.636,12.636,0,0,1-4.65-4.811v19.7h-8.654v-47.6h7.562v5.812a13.749,13.749,0,0,1,4.838-4.682,13.466,13.466,0,0,1,6.846-1.711A14.49,14.49,0,0,1,533,182.636,15.616,15.616,0,0,1,538,186.381a17.433,17.433,0,0,1,3.294,5.554,19.119,19.119,0,0,1,1.195,6.749,21.18,21.18,0,0,1-1.1,6.91,17.683,17.683,0,0,1-3.068,5.619,14.306,14.306,0,0,1-4.682,3.746A13.1,13.1,0,0,1,527.7,216.315Zm-2.906-7.362a7.76,7.76,0,0,0,3.584-.84,8.69,8.69,0,0,0,2.809-2.26A10.611,10.611,0,0,0,533,202.559a11.8,11.8,0,0,0,.646-3.875,10.939,10.939,0,0,0-.71-3.972,9.766,9.766,0,0,0-1.97-3.2A9.152,9.152,0,0,0,528,189.384a8.937,8.937,0,0,0-3.719-.775,8.129,8.129,0,0,0-2.519.42,8.879,8.879,0,0,0-2.39,1.195,10.471,10.471,0,0,0-1.97,1.808,7.512,7.512,0,0,0-1.324,2.26v7.944a11.5,11.5,0,0,0,3.552,4.811A8.125,8.125,0,0,0,524.8,208.953Z" transform="translate(153.768 18.969)" fill="#edf2f7"/>
    <path id="Tracé_1062" data-name="Tracé 1062" d="M529.871,216.368a26.177,26.177,0,0,1-8.331-1.356,20.319,20.319,0,0,1-6.975-3.875l3.229-5.425a27.823,27.823,0,0,0,6.038,3.326,16.19,16.19,0,0,0,5.845,1.13,7.388,7.388,0,0,0,4.069-.969,3.121,3.121,0,0,0,1.485-2.777,2.774,2.774,0,0,0-1.744-2.648,37.658,37.658,0,0,0-5.683-1.937q-3.294-.9-5.619-1.744a14.421,14.421,0,0,1-3.746-1.905,6.521,6.521,0,0,1-2.067-2.454,7.833,7.833,0,0,1-.646-3.326,10.532,10.532,0,0,1,1-4.65,10.132,10.132,0,0,1,2.809-3.52,13.007,13.007,0,0,1,4.23-2.228,17.184,17.184,0,0,1,5.263-.775,22.63,22.63,0,0,1,7.136,1.1,17.391,17.391,0,0,1,6.1,3.552l-3.487,5.231a20.265,20.265,0,0,0-5.005-2.842,13.681,13.681,0,0,0-4.811-.9,6.964,6.964,0,0,0-3.681.9,3.145,3.145,0,0,0-1.485,2.906,2.809,2.809,0,0,0,.355,1.485,3.129,3.129,0,0,0,1.13,1.033,11.03,11.03,0,0,0,2.034.872q1.259.42,3.132.872,3.487.9,5.974,1.808a16.263,16.263,0,0,1,4.069,2.067A7.357,7.357,0,0,1,542.82,202a8.234,8.234,0,0,1,.743,3.649,9.418,9.418,0,0,1-3.681,7.847Q536.2,216.368,529.871,216.368Z" transform="translate(185.054 18.916)" fill="#edf2f7"/>
    <path id="Tracé_1063" data-name="Tracé 1063" d="M477.338,217.517l25.284-30.58H473.167a9.137,9.137,0,0,1,9.138-9.138h32.323v.2a21.81,21.81,0,0,1-4.784,13.638l-24.52,30.65h29.53a9.137,9.137,0,0,1-9.138,9.138H472.333A21.83,21.83,0,0,1,477.338,217.517Z" transform="translate(0 3.86)" fill="#5ad94c"/>
    <path id="Tracé_1064" data-name="Tracé 1064" d="M499.078,216.315a18.778,18.778,0,0,1-7.362-1.389,16.6,16.6,0,0,1-9.2-9.332,17.933,17.933,0,0,1-1.259-6.652,18.965,18.965,0,0,1,1.227-6.814,16.561,16.561,0,0,1,3.557-5.619,16.931,16.931,0,0,1,5.646-3.843,18.818,18.818,0,0,1,7.465-1.421,18.381,18.381,0,0,1,7.395,1.421,17.038,17.038,0,0,1,5.549,3.81,16.111,16.111,0,0,1,3.487,5.554,18.5,18.5,0,0,1,1.195,6.587c0,.56-.005,1.1-.027,1.614a6.937,6.937,0,0,1-.167,1.292H490.424a9.931,9.931,0,0,0,.974,3.552,8.667,8.667,0,0,0,4.774,4.327,9.123,9.123,0,0,0,3.229.581,9.961,9.961,0,0,0,4.876-1.259,6.667,6.667,0,0,0,3.132-3.326l7.432,2.067a15.112,15.112,0,0,1-5.979,6.361A18.515,18.515,0,0,1,499.078,216.315Zm8.783-20.408a8.995,8.995,0,0,0-2.809-6.1,9.058,9.058,0,0,0-9.3-1.679,8.427,8.427,0,0,0-2.675,1.711,8.776,8.776,0,0,0-1.905,2.648,9.125,9.125,0,0,0-.872,3.423Z" transform="translate(39.086 18.969)" fill="#5ad94c"/>
  </g>
</svg>
