<svg xmlns="http://www.w3.org/2000/svg" viewBox="0 0 57.35 20.08"><defs><style>.cls-1{fill:#fff;}.cls-2{fill:#5a6f99;}.cls-3{fill:#36cc29;}</style></defs><title>zenops_1</title><g id="Calque_2" data-name="Calque 2"><g id="Calque_1-2" data-name="Calque 1"><path class="cls-1" d="M32.08,14.48H30.47V11a1.8,1.8,0,0,0-.26-1.1.88.88,0,0,0-.73-.35,1.23,1.23,0,0,0-.49.1,1.64,1.64,0,0,0-.48.27,2,2,0,0,0-.4.41,1.54,1.54,0,0,0-.26.53v3.67H26.24V8.19h1.45V9.36a2.42,2.42,0,0,1,1-.94,3.27,3.27,0,0,1,1.49-.33,2,2,0,0,1,1,.21,1.56,1.56,0,0,1,.57.57,2.18,2.18,0,0,1,.28.79,4.43,4.43,0,0,1,.08.9Z"/><path class="cls-1" d="M38.41,14.56a4.75,4.75,0,0,1-2.12-.46,5.22,5.22,0,0,1-1.64-1.21,5.72,5.72,0,0,1-1.06-1.74,5.48,5.48,0,0,1-.37-2,5.26,5.26,0,0,1,.4-2,5.64,5.64,0,0,1,1.09-1.73A5.36,5.36,0,0,1,36.37,4.2a5,5,0,0,1,2.09-.44,4.72,4.72,0,0,1,2.1.47,5.3,5.3,0,0,1,1.63,1.24,5.7,5.7,0,0,1,1.05,1.74,5.47,5.47,0,0,1,.37,2,5.55,5.55,0,0,1-.38,2,5.78,5.78,0,0,1-1.08,1.71,5.44,5.44,0,0,1-1.65,1.19A5,5,0,0,1,38.41,14.56Zm-3.09-5.4a4.25,4.25,0,0,0,.21,1.33,3.47,3.47,0,0,0,.61,1.14,3,3,0,0,0,1,.8,2.81,2.81,0,0,0,1.31.3,2.72,2.72,0,0,0,1.33-.31,3,3,0,0,0,1-.82,3.88,3.88,0,0,0,.6-1.14,4.46,4.46,0,0,0,.2-1.3,4,4,0,0,0-.22-1.34,3.67,3.67,0,0,0-.61-1.14,2.87,2.87,0,0,0-1-.78,2.77,2.77,0,0,0-1.3-.3,2.87,2.87,0,0,0-1.33.31,3.22,3.22,0,0,0-1,.81,3.86,3.86,0,0,0-.59,1.14A4.46,4.46,0,0,0,35.32,9.16Z"/><path class="cls-1" d="M48.59,14.6a2.48,2.48,0,0,1-1.29-.33,2.4,2.4,0,0,1-.87-.89V17h-1.6V8.19h1.4V9.27a2.68,2.68,0,0,1,.9-.87,2.52,2.52,0,0,1,1.27-.31,2.71,2.71,0,0,1,1.18.25,3.08,3.08,0,0,1,.93.7,3.31,3.31,0,0,1,.61,1,3.56,3.56,0,0,1,.22,1.26,4.13,4.13,0,0,1-.2,1.28,3.36,3.36,0,0,1-.57,1,2.77,2.77,0,0,1-.87.7A2.44,2.44,0,0,1,48.59,14.6Zm-.54-1.37a1.5,1.5,0,0,0,.67-.15,1.78,1.78,0,0,0,.52-.42,1.92,1.92,0,0,0,.34-.61,2.19,2.19,0,0,0,0-1.46,1.84,1.84,0,0,0-.37-.6,1.78,1.78,0,0,0-.55-.39,1.56,1.56,0,0,0-1.16-.07,1.65,1.65,0,0,0-.44.22,2,2,0,0,0-.37.34,1.51,1.51,0,0,0-.25.42V12a2.26,2.26,0,0,0,.66.89A1.5,1.5,0,0,0,48.05,13.23Z"/><path class="cls-1" d="M54.81,14.6a4.84,4.84,0,0,1-1.55-.25A3.85,3.85,0,0,1,52,13.63l.6-1a5,5,0,0,0,1.12.62,3,3,0,0,0,1.08.21,1.38,1.38,0,0,0,.76-.18.59.59,0,0,0,.28-.52.52.52,0,0,0-.33-.49,8,8,0,0,0-1-.36c-.41-.11-.76-.22-1-.32a2.46,2.46,0,0,1-.69-.36,1.18,1.18,0,0,1-.39-.45,1.46,1.46,0,0,1-.12-.62,1.93,1.93,0,0,1,.71-1.52,2.28,2.28,0,0,1,.79-.41,3,3,0,0,1,1-.15A4.08,4.08,0,0,1,56,8.28a3,3,0,0,1,1.13.66l-.64,1a3.71,3.71,0,0,0-.93-.53,2.61,2.61,0,0,0-.9-.17,1.29,1.29,0,0,0-.68.17.57.57,0,0,0-.28.54.49.49,0,0,0,.07.28.56.56,0,0,0,.21.19,1.55,1.55,0,0,0,.38.16,5.62,5.62,0,0,0,.58.16c.43.12.8.23,1.11.34a2.9,2.9,0,0,1,.75.38,1.47,1.47,0,0,1,.44.5,1.59,1.59,0,0,1,.13.68,1.74,1.74,0,0,1-.68,1.46A3,3,0,0,1,54.81,14.6Z"/><path class="cls-2" d="M19.77,6.85a6.35,6.35,0,0,1,2.85,4.2,5,5,0,0,1-.46,2.73,6,6,0,0,1-1.78,2.13A8.59,8.59,0,0,1,18,17.23a13,13,0,0,1-2.56.7,17.11,17.11,0,0,1-5.25,0,16.72,16.72,0,0,1-5-1.65,11.5,11.5,0,0,1-4.06-3.42A6.74,6.74,0,0,1,.09,10.3,4.9,4.9,0,0,1,.35,7.54,5.94,5.94,0,0,1,4.26,4.33a6.16,6.16,0,0,0-3,3.53,4.61,4.61,0,0,0,1.15,4,11,11,0,0,0,3.66,2.67,15.64,15.64,0,0,0,4.45,1.37,16.12,16.12,0,0,0,4.65.13,10.13,10.13,0,0,0,4.28-1.41,4.3,4.3,0,0,0,2.17-3.54A6.61,6.61,0,0,0,19.77,6.85Z"/><path class="cls-3" d="M20,16.7a9,9,0,0,1-4.68,3.06,9.83,9.83,0,0,1-5.8-.25,10.18,10.18,0,0,1-4.73-3.57,10.43,10.43,0,0,1-1.89-5.68A10.28,10.28,0,0,1,4.57,4.5,9.89,9.89,0,0,1,9.14.73a9.73,9.73,0,0,1,5.78-.5,9,9,0,0,1,4.81,2.85,9.81,9.81,0,0,0-5-1.88,9.3,9.3,0,0,0-5,1,8.81,8.81,0,0,0,.34,15.91,9.33,9.33,0,0,0,5,.74A9.8,9.8,0,0,0,20,16.7Z"/><path class="cls-1" d="M10.66,12.43l4.7-5.68H9.89a1.7,1.7,0,0,1,1.7-1.7h6v0a4,4,0,0,1-.89,2.53l-4.55,5.69h5.49a1.7,1.7,0,0,1-1.7,1.7H9.73A4.06,4.06,0,0,1,10.66,12.43Z"/><path class="cls-1" d="M22,14.6a3.35,3.35,0,0,1-1.37-.26,3,3,0,0,1-1.71-1.73,3.22,3.22,0,0,1-.24-1.24,3.52,3.52,0,0,1,.23-1.26,3,3,0,0,1,.66-1,3.24,3.24,0,0,1,1.05-.71A3.45,3.45,0,0,1,22,8.09a3.32,3.32,0,0,1,1.37.26,3.05,3.05,0,0,1,1,.71,2.91,2.91,0,0,1,.65,1,3.38,3.38,0,0,1,.22,1.22v.3q0,.15,0,.24H20.36a1.69,1.69,0,0,0,.18.66,1.55,1.55,0,0,0,.37.5,1.6,1.6,0,0,0,.52.31,1.73,1.73,0,0,0,.6.11,1.78,1.78,0,0,0,.9-.24,1.16,1.16,0,0,0,.58-.62L24.9,13a2.88,2.88,0,0,1-1.12,1.18A3.38,3.38,0,0,1,22,14.6Zm1.63-3.79a1.69,1.69,0,0,0-.52-1.13A1.59,1.59,0,0,0,22,9.25a1.74,1.74,0,0,0-.61.11,1.71,1.71,0,0,0-.5.32,1.75,1.75,0,0,0-.35.49,1.55,1.55,0,0,0-.16.64Z"/></g></g></svg>