<svg id="Layer_1" data-name="Layer 1" xmlns="http://www.w3.org/2000/svg" viewBox="0 0 25.95 20.58"><defs><style>.cls-1{fill:#fff;}</style></defs><path class="cls-1" d="M23,4.57a3,3,0,0,0-1.15,5.77A2,2,0,0,1,20,11.57H16a4,4,0,0,0-2,.56V6.39a3,3,0,1,0-3.83-1.82A3,3,0,0,0,12,6.39v8.36a3,3,0,1,0,3.84,1.81,3,3,0,0,0-1.68-1.76A2,2,0,0,1,16,13.57h4a4,4,0,0,0,3.91-3.16A3,3,0,0,0,23,4.57Zm-10-2a1,1,0,1,1-1,1A1,1,0,0,1,13,2.57Zm0,16a1,1,0,1,1,1-1A1,1,0,0,1,13,18.57Zm10-10a1,1,0,1,1,1-1,1,1,0,0,1-1,1Z"/><path class="cls-1" d="M6,10a4,4,0,0,0,4,4l.25,0a2.52,2.52,0,0,1,.25-.21V11.93A2.08,2.08,0,0,1,10,12a2,2,0,0,1,0-4,2.08,2.08,0,0,1,.5.07V7.23A4.34,4.34,0,0,1,9.32,6.07,4,4,0,0,0,6,10Z"/><path class="cls-1" d="M8.78,19a4.51,4.51,0,0,1-.12-2.59,2,2,0,0,0-2.36-.93l-.3.13-1.14.57-1.1-1.1L4.36,14a2,2,0,0,0-.86-2.69,1.94,1.94,0,0,0-.3-.13L2,10.78V9.22l1.2-.4A2,2,0,0,0,4.49,6.3c0-.1-.08-.2-.13-.3L3.79,4.89l1.1-1.1L6,4.36a2,2,0,0,0,2.53-.6A4.49,4.49,0,0,1,10.19,0H8.5a1,1,0,0,0-1,.68L6.92,2.57,5.14,1.68A1,1,0,0,0,4,1.87L1.87,4a1,1,0,0,0-.19,1.15l.89,1.78L.68,7.56A1,1,0,0,0,0,8.5v3a1,1,0,0,0,.68.95l1.89.63-.89,1.78A1,1,0,0,0,1.87,16L4,18.13a1,1,0,0,0,1.15.19l1.78-.89.63,1.89a1,1,0,0,0,1,.68h.78A4.71,4.71,0,0,1,8.78,19Z"/></svg>