<svg xmlns="http://www.w3.org/2000/svg" width="157.461" height="37.792" viewBox="0 0 157.461 37.792">
  <g id="Layer_2" data-name="Layer 2" opacity="0.5">
    <g id="Layer_2-2" data-name="Layer 2" transform="translate(0 0)">
      <g id="MF_logo_black" data-name="MF logo black">
        <path id="Tracé_1022" data-name="Tracé 1022" d="M49.311,0V30.7H41.832V7.479H19V0Z" transform="translate(-11.521 0)" fill="#fff" fill-rule="evenodd"/>
        <path id="Tracé_1023" data-name="Tracé 1023" d="M30.311,42.225v7.086H0V19H7.479V42.225Z" transform="translate(0 -11.52)" fill="#fff" fill-rule="evenodd"/>
        <path id="Tracé_1024" data-name="Tracé 1024" d="M135.714,16.533V0h-3.149l-5.673,8.034L121.224,0H118V16.533h3.543V5.409l4.574,6.794h1.9l4.157-6.794V16.533Z" transform="translate(-71.549 0)" fill="#fff" fill-rule="evenodd"/>
        <path id="Tracé_1025" data-name="Tracé 1025" d="M184,16.533h3.149V0H184V16.533Z" transform="translate(-111.568 0)" fill="#fff" fill-rule="evenodd"/>
        <path id="Tracé_1026" data-name="Tracé 1026" d="M229.138,14.537V11.022H225.6V12.99h-9.448V3.149H225.6V5.117h3.543V1.625A1.594,1.594,0,0,0,227.513,0H214.6A1.575,1.575,0,0,0,213,1.625V14.537c0,.9.7,2,1.6,2h12.912C228.434,16.533,229.138,15.435,229.138,14.537Z" transform="translate(-129.151 0.001)" fill="#fff" fill-rule="evenodd"/>
        <path id="Tracé_1027" data-name="Tracé 1027" d="M289.746,16.533l-4.724-6.692h3.5a1.606,1.606,0,0,0,1.614-1.63V1.653A1.61,1.61,0,0,0,288.514,0H274V16.533h3.149V9.841h3.905l4.724,6.692Zm-12.6-13.384h9.841V6.692h-9.841Z" transform="translate(-166.14 0)" fill="#fff" fill-rule="evenodd"/>
        <path id="Tracé_1028" data-name="Tracé 1028" d="M351.138,14.892V1.665A1.614,1.614,0,0,0,349.512,0H336.6A1.61,1.61,0,0,0,335,1.665V14.892a1.606,1.606,0,0,0,1.6,1.642h12.912a1.61,1.61,0,0,0,1.626-1.642ZM338.148,3.149h9.841V13.384h-9.841Z" transform="translate(-203.126 0)" fill="#fff" fill-rule="evenodd"/>
        <path id="Tracé_1029" data-name="Tracé 1029" d="M133.746,56.756V54H118V70.533h3.543V63.448h9.448V60.3h-9.448V57.149h12.2Z" transform="translate(-71.549 -32.743)" fill="#fff" fill-rule="evenodd"/>
        <path id="Tracé_1030" data-name="Tracé 1030" d="M185.742,68.892V55.665A1.6,1.6,0,0,0,184.167,54h-12.6A1.575,1.575,0,0,0,170,55.665V68.892a1.575,1.575,0,0,0,1.575,1.642h12.6a1.575,1.575,0,0,0,1.575-1.642Zm-12.99-11.743h9.841V67.384h-9.841Z" transform="translate(-103.075 -32.743)" fill="#fff" fill-rule="evenodd"/>
        <path id="Tracé_1031" data-name="Tracé 1031" d="M240.533,68.892V64.629l-3.149.031v2.724h-9.841V57.149h9.841V59.9h3.149v-4.24A1.618,1.618,0,0,0,238.908,54H226c-.9,0-2,.72-2,1.665V68.892c0,.921,1.1,1.642,2,1.642h12.912a1.61,1.61,0,0,0,1.626-1.642Z" transform="translate(-135.822 -32.743)" fill="#fff" fill-rule="evenodd"/>
        <path id="Tracé_1032" data-name="Tracé 1032" d="M296.533,68.931V54H292.99V67.384h-9.448V54H280V68.931a1.575,1.575,0,0,0,1.6,1.6h12.912C295.435,70.533,296.533,69.829,296.533,68.931Z" transform="translate(-169.777 -32.743)" fill="#fff" fill-rule="evenodd"/>
        <path id="Tracé_1033" data-name="Tracé 1033" d="M351.14,68.959V62.727a1.61,1.61,0,0,0-1.61-1.642H338.543V57.543h9.448v1.181h3.149V55.968c0-.9-.685-1.968-1.575-1.968h-12.6c-.874,0-1.575,1.11-1.575,2.051v6.527a1.606,1.606,0,0,0,1.575,1.657H347.99v3.149h-9.448V66.2H335v2.756a1.575,1.575,0,0,0,1.6,1.575h12.912a1.575,1.575,0,0,0,1.626-1.575Z" transform="translate(-203.127 -32.743)" fill="#fff" fill-rule="evenodd"/>
        <path id="Tracé_1034" data-name="Tracé 1034" d="M387.952,6.821A2.917,2.917,0,0,1,385,3.869a2.959,2.959,0,1,1,2.952,2.952Zm0-5.637a2.685,2.685,0,1,0,2.669,2.693,2.641,2.641,0,0,0-2.661-2.693Zm.728,4.476-.728-1.575h-.59V5.66h-.394V2.117h.992c.823-.114,1.161.248,1.161.929a.905.905,0,0,1-.736,1l.787,1.618Zm-1.319-1.968h.59c.476,0,.657-.165.657-.6s-.173-.583-.709-.583h-.539Z" transform="translate(-233.444 -0.542)" fill="#fff"/>
      </g>
    </g>
  </g>
</svg>
