<svg xmlns="http://www.w3.org/2000/svg" xmlns:xlink="http://www.w3.org/1999/xlink" width="53.704" height="51.958" viewBox="0 0 53.704 51.958">
  <defs>
    <linearGradient id="linear-gradient" x1="0.5" x2="0.5" y2="1" gradientUnits="objectBoundingBox">
      <stop offset="0" stop-color="#36cc29"/>
      <stop offset="1" stop-color="#13e600"/>
    </linearGradient>
  </defs>
  <g id="Simplify" transform="translate(-69.74 -94.147)">
    <path id="Tracé_1053" data-name="Tracé 1053" d="M100.877,101.044H82.061a2.915,2.915,0,0,0-2.525,1.457L70.129,118.8a2.918,2.918,0,0,0,0,2.912L79.537,138a2.915,2.915,0,0,0,2.525,1.457h18.815A2.914,2.914,0,0,0,103.4,138l9.408-16.295a2.907,2.907,0,0,0,0-2.912L103.4,102.5A2.914,2.914,0,0,0,100.877,101.044Z" transform="translate(0 6.646)" fill="#dadbdb"/>
    <path id="Tracé_1054" data-name="Tracé 1054" d="M74.989,121.471v4.254a6.38,6.38,0,0,0,6.381,6.381h29.777a6.382,6.382,0,0,0,6.381-6.381v-4.254a2.128,2.128,0,0,0-2.127-2.127h-2.127v-6.381a2.127,2.127,0,0,0-4.254,0v6.381H83.5V104.455a2.126,2.126,0,0,1,2.127-2.127h2.127a2.127,2.127,0,0,0,0-4.254H85.624a6.382,6.382,0,0,0-6.381,6.381v14.889H77.116A2.126,2.126,0,0,0,74.989,121.471Zm4.254,2.127h34.031v2.127a2.126,2.126,0,0,1-2.127,2.127H81.37a2.125,2.125,0,0,1-2.127-2.127Z" transform="translate(5.915 3.299)"/>
    <path id="Tracé_1055" data-name="Tracé 1055" d="M101.313,108.8a10.781,10.781,0,0,0-2.7-2.331,7.133,7.133,0,1,0-11.542,0,10.765,10.765,0,0,0-2.585,2.308,2.378,2.378,0,0,0,3.763,2.909,6,6,0,0,1,9.464,0,2.307,2.307,0,0,0,3.6-2.885Zm-8.356-4.019-.092,0a2.534,2.534,0,1,1,.092,0Z" transform="translate(14.657 -1)" fill="url(#linear-gradient)"/>
  </g>
</svg>
