<svg xmlns="http://www.w3.org/2000/svg" width="179.144" height="29.867" viewBox="0 0 179.144 29.867">
  <g id="Groupe_792" data-name="Groupe 792" opacity="0.5">
    <path id="Tracé_1035" data-name="Tracé 1035" d="M105.772,22.891c-.925,1.45-1.36,3.775-1.36,6.9,0,6.853,2.37,9.973,7.643,9.973,5.184,0,7.557-3.121,7.557-9.886,0-6.855-2.327-9.93-7.557-9.93-2.857,0-5.1,1.057-6.283,2.944m17.882-3.381c1.8,2.373,2.813,6.235,2.813,10.763,0,5.137-1.628,9.358-4.53,11.687-2.194,1.753-5.531,2.723-9.488,2.723-5.621,0-10.061-1.849-12.345-5.139-1.714-2.418-2.548-5.626-2.548-9.537,0-5.617,1.538-9.883,4.439-12.168,2.281-1.842,5.885-2.857,10.014-2.857,5.229,0,9.4,1.629,11.644,4.528" transform="translate(-67.465 -14.817)" fill="#fff"/>
    <path id="Tracé_1036" data-name="Tracé 1036" d="M202.648,29.919c1.669,0,2.634-.22,3.294-.834a4.924,4.924,0,0,0,1.275-3.692c0-1.932-.79-3.339-2.153-3.823a7.328,7.328,0,0,0-2.284-.264h-8.609v8.612Zm-8.477,15.459h-6.241v-29.3H202.56c5.142,0,6.943.529,8.876,2.686a9.965,9.965,0,0,1,2.634,6.85,10.036,10.036,0,0,1-3.249,7.643c-1.712,1.451-3.3,1.889-6.633,1.889H194.172Z" transform="translate(-125.203 -15.516)" fill="#fff"/>
    <path id="Tracé_1037" data-name="Tracé 1037" d="M294.164,45.39h-6.238V33.307H276.638V45.39H270.4v-29.3h6.238V28.081h11.288V16.087h6.238Z" transform="translate(-177.89 -15.523)" fill="#fff"/>
    <path id="Tracé_1038" data-name="Tracé 1038" d="M354.9,22.891c-.926,1.45-1.361,3.775-1.361,6.9,0,6.853,2.366,9.973,7.639,9.973,5.188,0,7.555-3.121,7.555-9.886,0-6.855-2.325-9.93-7.555-9.93-2.853,0-5.1,1.057-6.278,2.944m17.876-3.381c1.8,2.373,2.811,6.235,2.811,10.763,0,5.137-1.622,9.358-4.524,11.687-2.2,1.753-5.534,2.723-9.493,2.723-5.62,0-10.056-1.849-12.34-5.139-1.715-2.418-2.552-5.626-2.552-9.537,0-5.617,1.538-9.883,4.439-12.168,2.284-1.842,5.887-2.857,10.02-2.857,5.228,0,9.4,1.629,11.638,4.528" transform="translate(-226.624 -14.817)" fill="#fff"/>
    <path id="Tracé_1039" data-name="Tracé 1039" d="M14.868,39.062H30.146c2.373,0,3.672-.221,4.431-.718a3.11,3.11,0,0,0,1.477-2.728,3.441,3.441,0,0,0-1.923-3.18,7.2,7.2,0,0,0-3.225-.536H24.531c-3.581,0-5.908-.628-7.477-1.969a8.733,8.733,0,0,1-2.823-6.586c0-3.8,2.106-7.118,5.2-8.192,1.341-.494,2.909-.628,6.4-.628H41.4v5.328H27.262a26.079,26.079,0,0,0-4.85.265,2.882,2.882,0,0,0-2.016,3.05,3.048,3.048,0,0,0,1.7,2.912,13.181,13.181,0,0,0,4.627.492h4.787c4.39,0,6.763.669,8.509,2.46a9.878,9.878,0,0,1,2.239,6.583,8.878,8.878,0,0,1-3.8,7.567c-1.477.94-3.359,1.208-7.792,1.208h-15.8Z" transform="translate(-14.232 -14.525)" fill="#fff"/>
    <path id="Tracé_1040" data-name="Tracé 1040" d="M433.319,39.062h15.276c2.374,0,3.672-.221,4.434-.718a3.115,3.115,0,0,0,1.476-2.728,3.44,3.44,0,0,0-1.924-3.18,7.193,7.193,0,0,0-3.225-.536h-6.373c-3.582,0-5.911-.628-7.478-1.969a8.723,8.723,0,0,1-2.823-6.586c0-3.8,2.1-7.118,5.194-8.192,1.343-.494,2.909-.628,6.4-.628h15.571v5.328H445.711a26.016,26.016,0,0,0-4.849.265,2.875,2.875,0,0,0-2.017,3.05,3.045,3.045,0,0,0,1.7,2.912,13.194,13.194,0,0,0,4.63.492h4.788c4.393,0,6.764.669,8.513,2.46a9.891,9.891,0,0,1,2.233,6.583,8.872,8.872,0,0,1-3.806,7.567c-1.478.94-3.357,1.208-7.79,1.208h-15.8Z" transform="translate(-281.567 -14.525)" fill="#fff"/>
  </g>
</svg>
