<svg xmlns="http://www.w3.org/2000/svg" xmlns:xlink="http://www.w3.org/1999/xlink" width="130" height="130" viewBox="0 0 130 130">
  <defs>
    <filter id="Rectangle_318" x="0" y="0" width="130" height="130" filterUnits="userSpaceOnUse">
      <feOffset dy="3" input="SourceAlpha"/>
      <feGaussianBlur stdDeviation="3" result="blur"/>
      <feFlood flood-opacity="0.161"/>
      <feComposite operator="in" in2="blur"/>
      <feComposite in="SourceGraphic"/>
    </filter>
  </defs>
  <g id="Groupe_822" data-name="Groupe 822" transform="translate(-659 -358)">
    <g transform="matrix(1, 0, 0, 1, 659, 358)" filter="url(#Rectangle_318)">
      <rect id="Rectangle_318-2" data-name="Rectangle 318" width="112" height="112" rx="10" transform="translate(9 6)" fill="#1a202c"/>
    </g>
    <g id="Groupe_820" data-name="Groupe 820" transform="translate(226.917 188.301)">
      <path id="Tracé_1065" data-name="Tracé 1065" d="M474.394,242.2l21.075-25.49H470.912a7.62,7.62,0,0,1,7.619-7.619h26.952v.162a18.21,18.21,0,0,1-3.989,11.37l-20.446,25.552h24.624a7.617,7.617,0,0,1-7.619,7.619H470.221A18.2,18.2,0,0,1,474.394,242.2Z" transform="translate(0)" fill="#5ad94c"/>
      <g id="Groupe_818" data-name="Groupe 818" transform="translate(481.967 209.55)">
        <path id="Tracé_1066" data-name="Tracé 1066" d="M472.839,221.852l8.736-10.567h-5.169a23.714,23.714,0,0,0-2.1,3.984A22.125,22.125,0,0,0,472.839,221.852Z" transform="translate(-472.839 -201.89)" fill="#f7fafc"/>
        <path id="Tracé_1067" data-name="Tracé 1067" d="M496.32,222.943a23.57,23.57,0,0,0-4.33-7.17,21.671,21.671,0,0,0-6.7-5.1,18.3,18.3,0,0,0-4.366-1.485,20.837,20.837,0,0,1-1.57,7.462,10.6,10.6,0,0,1,2.472.884,12.112,12.112,0,0,1,4.02,3.244,15.276,15.276,0,0,1,2.535,4.7,17.253,17.253,0,0,1,.893,5.5,17.586,17.586,0,0,1-.835,5.348,15.106,15.106,0,0,1-2.472,4.729,12.447,12.447,0,0,1-4.016,3.365c-.251.135-.543.188-.8.3v1.1a9.812,9.812,0,0,1-3.253,7.264,20.063,20.063,0,0,0,7.112-1.674,21.443,21.443,0,0,0,6.8-4.886,22.776,22.776,0,0,0,4.451-7.044,22.152,22.152,0,0,0,1.606-8.372A22.616,22.616,0,0,0,496.32,222.943Z" transform="translate(-455.203 -209.191)" fill="#f7fafc"/>
        <path id="Tracé_1068" data-name="Tracé 1068" d="M481.777,219.922a14.554,14.554,0,0,1-2.477-4.635l-5.627,7.031h10.773A12.246,12.246,0,0,1,481.777,219.922Z" transform="translate(-469.927 -187.935)" fill="#f7fafc"/>
      </g>
    </g>
  </g>
</svg>
