<svg xmlns="http://www.w3.org/2000/svg" viewBox="0 0 22.66 20.08"><defs><style>.cls-1{fill:#e5e5e5;}.cls-2{fill:#36cc29;}.cls-3{fill:#1a202c;}</style></defs><title>zenops_mono</title><g id="Calque_2" data-name="Calque 2"><g id="Calque_1-2" data-name="Calque 1"><path class="cls-1" d="M19.77,6.85a6.35,6.35,0,0,1,2.85,4.2,5,5,0,0,1-.46,2.73,6,6,0,0,1-1.78,2.13A8.59,8.59,0,0,1,18,17.23a13,13,0,0,1-2.56.7,17.11,17.11,0,0,1-5.25,0,16.72,16.72,0,0,1-5-1.65,11.5,11.5,0,0,1-4.06-3.42A6.74,6.74,0,0,1,.09,10.3,4.9,4.9,0,0,1,.35,7.54,5.94,5.94,0,0,1,4.26,4.33a6.16,6.16,0,0,0-3,3.53,4.61,4.61,0,0,0,1.15,4,11,11,0,0,0,3.66,2.67,15.64,15.64,0,0,0,4.45,1.37,16.12,16.12,0,0,0,4.65.13,10.13,10.13,0,0,0,4.28-1.41,4.3,4.3,0,0,0,2.17-3.54A6.61,6.61,0,0,0,19.77,6.85Z"/><path class="cls-2" d="M20,16.7a9,9,0,0,1-4.68,3.06,9.83,9.83,0,0,1-5.8-.25,10.18,10.18,0,0,1-4.73-3.57,10.43,10.43,0,0,1-1.89-5.68A10.28,10.28,0,0,1,4.57,4.5,9.89,9.89,0,0,1,9.14.73a9.73,9.73,0,0,1,5.78-.5,9,9,0,0,1,4.81,2.85,9.81,9.81,0,0,0-5-1.88,9.3,9.3,0,0,0-5,1,8.81,8.81,0,0,0,.34,15.91,9.33,9.33,0,0,0,5,.74A9.8,9.8,0,0,0,20,16.7Z"/><path class="cls-3" d="M10.66,12.43l4.7-5.68H9.89a1.7,1.7,0,0,1,1.7-1.7h6v0a4,4,0,0,1-.89,2.53l-4.55,5.69h5.49a1.7,1.7,0,0,1-1.7,1.7H9.73A4.06,4.06,0,0,1,10.66,12.43Z"/></g></g></svg>